<svg xmlns="http://www.w3.org/2000/svg" width="97" height="22" viewBox="0 0 97 22" fill="none">
<path d="M40.22 17.9L45.26 3H49.38L54.42 17.9H51.04L50.04 14.86H44.58L43.58 17.9H40.22ZM45.44 12.16H49.18L46.9 5.12H47.74L45.44 12.16Z" fill="black"/>
<path d="M60.7178 18.14C59.6245 18.14 58.6378 17.8933 57.7578 17.4C56.8911 16.8933 56.1978 16.2067 55.6778 15.34C55.1711 14.4733 54.9178 13.5 54.9178 12.42C54.9178 11.34 55.1711 10.3733 55.6778 9.52C56.1845 8.65333 56.8778 7.97333 57.7578 7.48C58.6378 6.98667 59.6245 6.74 60.7178 6.74C61.5311 6.74 62.2845 6.88 62.9778 7.16C63.6711 7.44 64.2645 7.83333 64.7578 8.34C65.2511 8.83333 65.6045 9.42 65.8178 10.1L63.2178 11.22C63.0311 10.6733 62.7111 10.24 62.2578 9.92C61.8178 9.6 61.3045 9.44 60.7178 9.44C60.1978 9.44 59.7311 9.56667 59.3178 9.82C58.9178 10.0733 58.5978 10.4267 58.3578 10.88C58.1311 11.3333 58.0178 11.8533 58.0178 12.44C58.0178 13.0267 58.1311 13.5467 58.3578 14C58.5978 14.4533 58.9178 14.8067 59.3178 15.06C59.7311 15.3133 60.1978 15.44 60.7178 15.44C61.3178 15.44 61.8378 15.28 62.2778 14.96C62.7178 14.64 63.0311 14.2067 63.2178 13.66L65.8178 14.8C65.6178 15.44 65.2711 16.0133 64.7778 16.52C64.2845 17.0267 63.6911 17.4267 62.9978 17.72C62.3045 18 61.5445 18.14 60.7178 18.14Z" fill="black"/>
<path d="M67.5844 17.9V6.98H70.3844V9.64L70.0844 9.2C70.2444 8.36 70.631 7.74 71.2444 7.34C71.8577 6.94 72.591 6.74 73.4444 6.74C74.351 6.74 75.1444 6.97333 75.8244 7.44C76.5177 7.89333 76.951 8.50667 77.1244 9.28L76.2644 9.36C76.6244 8.46667 77.1377 7.80667 77.8044 7.38C78.471 6.95333 79.251 6.74 80.1444 6.74C80.931 6.74 81.6244 6.91333 82.2244 7.26C82.8377 7.60667 83.3177 8.09333 83.6644 8.72C84.011 9.33333 84.1844 10.0533 84.1844 10.88V17.9H81.1844V11.52C81.1844 11.0933 81.1044 10.7267 80.9444 10.42C80.7977 10.1133 80.5844 9.87333 80.3044 9.7C80.0244 9.52667 79.6844 9.44 79.2844 9.44C78.8977 9.44 78.5577 9.52667 78.2644 9.7C77.9844 9.87333 77.7644 10.1133 77.6044 10.42C77.4577 10.7267 77.3844 11.0933 77.3844 11.52V17.9H74.3844V11.52C74.3844 11.0933 74.3044 10.7267 74.1444 10.42C73.9977 10.1133 73.7844 9.87333 73.5044 9.7C73.2244 9.52667 72.8844 9.44 72.4844 9.44C72.0977 9.44 71.7577 9.52667 71.4644 9.7C71.1844 9.87333 70.9644 10.1133 70.8044 10.42C70.6577 10.7267 70.5844 11.0933 70.5844 11.52V17.9H67.5844Z" fill="black"/>
<path d="M91.4186 18.14C90.2586 18.14 89.2519 17.8867 88.3986 17.38C87.5453 16.86 86.8853 16.1667 86.4186 15.3C85.9519 14.4333 85.7186 13.4733 85.7186 12.42C85.7186 11.3267 85.9586 10.3533 86.4386 9.5C86.9319 8.64667 87.5919 7.97333 88.4186 7.48C89.2453 6.98667 90.1786 6.74 91.2186 6.74C92.0853 6.74 92.8519 6.88 93.5186 7.16C94.1853 7.42667 94.7453 7.80667 95.1986 8.3C95.6653 8.79333 96.0186 9.36667 96.2586 10.02C96.4986 10.66 96.6186 11.36 96.6186 12.12C96.6186 12.3333 96.6053 12.5467 96.5786 12.76C96.5653 12.96 96.5319 13.1333 96.4786 13.28H88.2986V11.08H94.7786L93.3586 12.12C93.4919 11.5467 93.4853 11.04 93.3386 10.6C93.1919 10.1467 92.9319 9.79333 92.5586 9.54C92.1986 9.27333 91.7519 9.14 91.2186 9.14C90.6986 9.14 90.2519 9.26667 89.8786 9.52C89.5053 9.77333 89.2253 10.1467 89.0386 10.64C88.8519 11.1333 88.7786 11.7333 88.8186 12.44C88.7653 13.0533 88.8386 13.5933 89.0386 14.06C89.2386 14.5267 89.5453 14.8933 89.9586 15.16C90.3719 15.4133 90.8719 15.54 91.4586 15.54C91.9919 15.54 92.4453 15.4333 92.8186 15.22C93.2053 15.0067 93.5053 14.7133 93.7186 14.34L96.1186 15.48C95.9053 16.0133 95.5653 16.48 95.0986 16.88C94.6453 17.28 94.1053 17.5933 93.4786 17.82C92.8519 18.0333 92.1653 18.14 91.4186 18.14Z" fill="black"/>
<circle cx="11" cy="11" r="11" fill="#7C3AED"/>
<circle cx="22" cy="11" r="11" fill="#7C3AED" fill-opacity="0.5"/>
</svg>